<?xml version="1.0" standalone="no"?><!DOCTYPE svg PUBLIC "-//W3C//DTD SVG 1.1//EN" "http://www.w3.org/Graphics/SVG/1.1/DTD/svg11.dtd"><svg t="1639739486798" class="icon" viewBox="0 0 1024 1024" version="1.1" xmlns="http://www.w3.org/2000/svg" p-id="10176" xmlns:xlink="http://www.w3.org/1999/xlink" width="128" height="128"><defs><style type="text/css"></style></defs><path d="M238 761.9c2.2 0 4.4-0.2 6.7-0.7L385 731.7c4.6-1 8.7-3.2 12-6.5l447.1-447.1c10.2-10.2 15.8-23.8 15.8-38.2 0-14.4-5.6-28-15.9-38.2l-77.7-77.5c-21.3-21.3-56-21.3-77.4 0.1L242.4 570.9c-3.3 3.3-5.6 7.5-6.5 12l-29.4 140c-2.2 10.7 1 21.7 8.8 29.4 6.1 6.2 14.2 9.6 22.7 9.6z m187.5-133L339 542.3l320.9-320.9 86.6 86.6-321 320.9z m307-470.6l77.7 77.5c1.5 1.5 1.8 3.1 1.8 4.2s-0.3 2.8-1.8 4.2L780.4 274l-86.6-86.6 29.2-29.2c2.6-2.5 6.9-2.5 9.5 0.1zM281.4 599.8l23.6-23.6 86.6 86.6-23.4 23.4-109.7 23 22.9-109.4zM888.1 855.6h-753c-13.3 0-24 10.7-24 24s10.7 24 24 24h753c13.3 0 24-10.7 24-24s-10.8-24-24-24z" fill="currentColor" p-id="10177"></path></svg>